<mxfile host="app.diagrams.net" modified="2023-05-12T06:44:34.137Z" agent="Mozilla/5.0 (Windows NT 10.0; Win64; x64) AppleWebKit/537.36 (KHTML, like Gecko) Chrome/112.0.0.0 Safari/537.36" version="21.2.9" etag="L2OPQhe3AFV05xf-ao6n" type="github">
  <diagram name="Страница 1" id="_gH5hE0OzetcWjFV-2kS">
    <mxGraphModel>
      <root>
        <mxCell id="0" />
        <mxCell id="1" parent="0" />
      </root>
    </mxGraphModel>
  </diagram>
</mxfile>
